# ProBuilder 4.2.3
# https://unity3d.com/unity/features/worldbuilding/probuilder
# 12/17/2020 2:42:55 PM

mtllib ./Torus.mtl
o Torus

g Torus
v 0 0 0
v 0.5 0.8660254 0
v 1.5 0.8660254 0
v 2 -8.742278E-08 0
v 1.5 -0.8660254 0
v 0.5 -0.8660254 0
v 0.5709033 0 -2.870126
v 1.032843 0.8660254 -2.678784
v 1.956723 0.8660254 -2.296101
v 2.418663 -8.742278E-08 -2.104759
v 1.956723 -0.8660254 -2.296101
v 1.032843 -0.8660254 -2.678784
v 2.1967 0 -5.303301
v 2.550253 0.8660254 -4.949748
v 3.25736 0.8660254 -4.242641
v 3.610913 -8.742278E-08 -3.889088
v 3.25736 -0.8660254 -4.242641
v 2.550253 -0.8660254 -4.949748
v 4.629874 0 -6.929096
v 4.821216 0.8660254 -6.467156
v 5.203899 0.8660254 -5.543277
v 5.395241 -8.742278E-08 -5.081337
v 5.203899 -0.8660254 -5.543277
v 4.821216 -0.8660254 -6.467156
v 7.5 0 -7.5
v 7.5 0.8660254 -7
v 7.5 0.8660254 -6
v 7.5 -8.742278E-08 -5.5
v 7.5 -0.8660254 -6
v 7.5 -0.8660254 -7
v 10.37013 0 -6.929096
v 10.17878 0.8660254 -6.467156
v 9.796101 0.8660254 -5.543277
v 9.604759 -8.742278E-08 -5.081337
v 9.796101 -0.8660254 -5.543277
v 10.17878 -0.8660254 -6.467156
v 12.8033 0 -5.303301
v 12.44975 0.8660254 -4.949748
v 11.74264 0.8660254 -4.24264
v 11.38909 -8.742278E-08 -3.889087
v 11.74264 -0.8660254 -4.24264
v 12.44975 -0.8660254 -4.949748
v 14.4291 0 -2.870126
v 13.96716 0.8660254 -2.678784
v 13.04328 0.8660254 -2.296101
v 12.58134 -8.742278E-08 -2.104759
v 13.04328 -0.8660254 -2.296101
v 13.96716 -0.8660254 -2.678784
v 15 0 6.556708E-07
v 14.5 0.8660254 6.119594E-07
v 13.5 0.8660254 5.245366E-07
v 13 -8.742278E-08 4.808253E-07
v 13.5 -0.8660254 5.245366E-07
v 14.5 -0.8660254 6.119594E-07
v 14.4291 0 2.870126
v 13.96716 0.8660254 2.678784
v 13.04328 0.8660254 2.296101
v 12.58134 -8.742278E-08 2.104759
v 13.04328 -0.8660254 2.296101
v 13.96716 -0.8660254 2.678784
v 12.8033 0 5.3033
v 12.44975 0.8660254 4.949747
v 11.74264 0.8660254 4.24264
v 11.38909 -8.742278E-08 3.889087
v 11.74264 -0.8660254 4.24264
v 12.44975 -0.8660254 4.949747
v 10.37013 0 6.929096
v 10.17878 0.8660254 6.467156
v 9.796101 0.8660254 5.543277
v 9.604759 -8.742278E-08 5.081337
v 9.796101 -0.8660254 5.543277
v 10.17878 -0.8660254 6.467156
v 7.5 0 7.5
v 7.5 0.8660254 7
v 7.5 0.8660254 6
v 7.5 -8.742278E-08 5.5
v 7.5 -0.8660254 6
v 7.5 -0.8660254 7
v 4.629874 0 6.929096
v 4.821216 0.8660254 6.467156
v 5.203899 0.8660254 5.543277
v 5.395241 -8.742278E-08 5.081337
v 5.203899 -0.8660254 5.543277
v 4.821216 -0.8660254 6.467156
v 2.1967 0 5.303301
v 2.550253 0.8660254 4.949748
v 3.25736 0.8660254 4.242641
v 3.610913 -8.742278E-08 3.889088
v 3.25736 -0.8660254 4.242641
v 2.550253 -0.8660254 4.949748
v 0.5709033 0 2.870126
v 1.032843 0.8660254 2.678784
v 1.956723 0.8660254 2.296101
v 2.418663 -8.742278E-08 2.104759
v 1.956723 -0.8660254 2.296101
v 1.032843 -0.8660254 2.678784

vt 0 0
vt 0 0.8660254
vt -0.5 0
vt -1.5 0
vt 0 -0.8660254
vt 1.5 0
vt 0.5 0
vt -2.870126 0
vt -2.678784 0.8660254
vt -1.032843 -2.678784
vt -1.956723 -2.296101
vt 2.296101 0.8660254
vt 2.104759 -8.742278E-08
vt 2.296101 -0.8660254
vt 1.956723 -2.296101
vt 1.032843 -2.678784
vt -2.678784 -0.8660254
vt -5.303301 0
vt -4.949748 0.8660254
vt -2.550253 -4.949748
vt -3.25736 -4.242641
vt 4.242641 0.8660254
vt 3.889088 -8.742278E-08
vt 4.242641 -0.8660254
vt 3.25736 -4.242641
vt 2.550253 -4.949748
vt -4.949748 -0.8660254
vt -2.1967 0
vt -2.550253 0.8660254
vt 3.25736 0.8660254
vt 3.610913 -8.742278E-08
vt 3.25736 -0.8660254
vt -2.550253 -0.8660254
vt -4.629874 0
vt -4.821216 0.8660254
vt -4.821216 -6.467156
vt -5.203899 -5.543277
vt 5.203899 0.8660254
vt 5.395241 -8.742278E-08
vt 5.203899 -0.8660254
vt 5.203899 -5.543277
vt 4.821216 -6.467156
vt -4.821216 -0.8660254
vt -7.5 0
vt -7.5 0.8660254
vt -7.5 -7
vt -7.5 -6
vt 7.5 0.8660254
vt 7.5 -8.742278E-08
vt 7.5 -0.8660254
vt 7.5 -6
vt 7.5 -7
vt -7.5 -0.8660254
vt -10.37013 0
vt -10.17878 0.8660254
vt -10.17878 -6.467156
vt -9.796101 -5.543277
vt 9.796101 0.8660254
vt 9.604759 -8.742278E-08
vt 9.796101 -0.8660254
vt 9.796101 -5.543277
vt 10.17878 -6.467156
vt -10.17878 -0.8660254
vt -12.8033 0
vt -12.44975 0.8660254
vt -12.44975 -4.949748
vt -11.74264 -4.24264
vt 11.74264 0.8660254
vt 11.38909 -8.742278E-08
vt 11.74264 -0.8660254
vt 11.74264 -4.24264
vt 12.44975 -4.949748
vt -12.44975 -0.8660254
vt 5.303301 0
vt 4.949748 0.8660254
vt -4.24264 0.8660254
vt -3.889087 -8.742278E-08
vt -4.24264 -0.8660254
vt 4.949748 -0.8660254
vt 2.870126 0
vt 2.678784 0.8660254
vt -13.96716 -2.678784
vt -13.04328 -2.296101
vt -2.296101 0.8660254
vt -2.104759 -8.742278E-08
vt -2.296101 -0.8660254
vt 13.04328 -2.296101
vt 13.96716 -2.678784
vt 2.678784 -0.8660254
vt -14.5 6.119594E-07
vt -13.5 5.245366E-07
vt 13.5 5.245366E-07
vt 14.5 6.119594E-07
vt -13.96716 2.678784
vt -13.04328 2.296101
vt 13.04328 2.296101
vt 13.96716 2.678784
vt -12.44975 4.949747
vt -11.74264 4.24264
vt 11.74264 4.24264
vt 12.44975 4.949747
vt 12.8033 0
vt 12.44975 0.8660254
vt -11.74264 0.8660254
vt -11.38909 -8.742278E-08
vt -11.74264 -0.8660254
vt 12.44975 -0.8660254
vt 10.37013 0
vt 10.17878 0.8660254
vt -10.17878 6.467156
vt -9.796101 5.543277
vt -9.796101 0.8660254
vt -9.604759 -8.742278E-08
vt -9.796101 -0.8660254
vt 9.796101 5.543277
vt 10.17878 6.467156
vt 10.17878 -0.8660254
vt -7.5 7
vt -7.5 6
vt 7.5 6
vt 7.5 7
vt 4.629874 0
vt 4.821216 0.8660254
vt -4.821216 6.467156
vt -5.203899 5.543277
vt -5.203899 0.8660254
vt -5.395241 -8.742278E-08
vt -5.203899 -0.8660254
vt 5.203899 5.543277
vt 4.821216 6.467156
vt 4.821216 -0.8660254
vt 2.1967 0
vt 2.550253 0.8660254
vt -2.550253 4.949748
vt -3.25736 4.242641
vt -3.25736 0.8660254
vt -3.610913 -8.742278E-08
vt -3.25736 -0.8660254
vt 3.25736 4.242641
vt 2.550253 4.949748
vt 2.550253 -0.8660254
vt -1.032843 2.678784
vt -1.956723 2.296101
vt 1.956723 2.296101
vt 1.032843 2.678784

vn -1 4.364952E-08 -3.928457E-08
vn -0.4963403 0.8681281 -1.644656E-08
vn 0.4963403 0.8681281 1.299901E-08
vn 1 -1.745981E-08 3.928457E-08
vn 0.4963403 -0.8681281 3.033102E-08
vn -0.4963403 -0.8681281 -2.599802E-08
vn -0.9238795 5.237943E-08 -0.3826835
vn -0.4585586 0.8681281 -0.1899412
vn 0.4585586 0.8681281 0.1899412
vn 0.9238795 -8.729905E-09 0.3826835
vn 0.4585586 -0.8681281 0.1899412
vn -0.4585586 -0.8681281 -0.1899412
vn -0.7071067 3.491962E-08 -0.7071068
vn -0.3509656 0.8681281 -0.3509656
vn 0.3509656 0.8681281 0.3509656
vn 0.7071067 -6.110933E-08 0.7071068
vn 0.3509656 -0.8681281 0.3509656
vn -0.3509656 -0.868128 -0.3509656
vn -0.3826833 4.364952E-08 -0.9238796
vn -0.1899411 0.8681281 -0.4585586
vn 0.1899412 0.868128 0.4585588
vn 0.3826833 0 0.9238796
vn 0.1899412 -0.868128 0.4585587
vn -0.1899412 -0.8681281 -0.4585587
vn -2.618971E-08 5.237942E-08 -1
vn -1.644656E-08 0.8681281 -0.4963402
vn 0 0.868128 0.4963404
vn 5.237942E-08 -2.618971E-08 1
vn 4.333003E-08 -0.8681281 0.4963403
vn -4.333003E-09 -0.8681281 -0.4963403
vn 0.3826833 5.237943E-08 -0.9238796
vn 0.1899411 0.8681281 -0.4585586
vn -0.1899412 0.8681279 0.4585588
vn -0.3826834 0 0.9238796
vn -0.1899413 -0.868128 0.4585588
vn 0.1899411 -0.8681281 -0.4585586
vn 0.7071068 9.602896E-08 -0.7071067
vn 0.3509656 0.8681281 -0.3509655
vn -0.3509657 0.8681281 0.3509656
vn -0.7071068 -6.110933E-08 0.7071067
vn -0.3509656 -0.8681281 0.3509656
vn 0.3509656 -0.8681281 -0.3509655
vn 0.9238795 7.856913E-08 -0.3826835
vn 0.4585586 0.8681281 -0.1899412
vn -0.4585588 0.8681279 0.1899414
vn -0.9238794 -3.49196E-08 0.3826835
vn -0.4585589 -0.8681279 0.1899413
vn 0.4585586 -0.8681281 -0.1899412

usemtl ProBuilderDefault
f 2/2/2 8/9/8 7/8/7 1/1/1
f 3/4/3 9/11/9 8/10/8 2/3/2
f 4/1/4 10/13/10 9/12/9 3/2/3
f 5/5/5 11/14/11 10/13/10 4/1/4
f 6/7/6 12/16/12 11/15/11 5/6/5
f 1/1/1 7/8/7 12/17/12 6/5/6
f 8/9/8 14/19/14 13/18/13 7/8/7
f 9/11/9 15/21/15 14/20/14 8/10/8
f 10/13/10 16/23/16 15/22/15 9/12/9
f 11/14/11 17/24/17 16/23/16 10/13/10
f 12/16/12 18/26/18 17/25/17 11/15/11
f 7/8/7 13/18/13 18/27/18 12/17/12
f 14/29/14 20/35/20 19/34/19 13/28/13
f 15/21/15 21/37/21 20/36/20 14/20/14
f 16/31/16 22/39/22 21/38/21 15/30/15
f 17/32/17 23/40/23 22/39/22 16/31/16
f 18/26/18 24/42/24 23/41/23 17/25/17
f 13/28/13 19/34/19 24/43/24 18/33/18
f 20/35/20 26/45/26 25/44/25 19/34/19
f 21/37/21 27/47/27 26/46/26 20/36/20
f 22/39/22 28/49/28 27/48/27 21/38/21
f 23/40/23 29/50/29 28/49/28 22/39/22
f 24/42/24 30/52/30 29/51/29 23/41/23
f 19/34/19 25/44/25 30/53/30 24/43/24
f 26/45/26 32/55/32 31/54/31 25/44/25
f 27/47/27 33/57/33 32/56/32 26/46/26
f 28/49/28 34/59/34 33/58/33 27/48/27
f 29/50/29 35/60/35 34/59/34 28/49/28
f 30/52/30 36/62/36 35/61/35 29/51/29
f 25/44/25 31/54/31 36/63/36 30/53/30
f 32/55/32 38/65/38 37/64/37 31/54/31
f 33/57/33 39/67/39 38/66/38 32/56/32
f 34/59/34 40/69/40 39/68/39 33/58/33
f 35/60/35 41/70/41 40/69/40 34/59/34
f 36/62/36 42/72/42 41/71/41 35/61/35
f 31/54/31 37/64/37 42/73/42 36/63/36
f 38/75/38 44/81/44 43/80/43 37/74/37
f 39/67/39 45/83/45 44/82/44 38/66/38
f 40/77/40 46/85/46 45/84/45 39/76/39
f 41/78/41 47/86/47 46/85/46 40/77/40
f 42/72/42 48/88/48 47/87/47 41/71/41
f 37/74/37 43/80/43 48/89/48 42/79/42
f 44/81/44 50/2/3 49/1/4 43/80/43
f 45/83/45 51/91/2 50/90/3 44/82/44
f 46/85/46 52/1/1 51/2/2 45/84/45
f 47/86/47 53/5/6 52/1/1 46/85/46
f 48/88/48 54/93/5 53/92/6 47/87/47
f 43/80/43 49/1/4 54/5/5 48/89/48
f 50/2/3 56/9/9 55/8/10 49/1/4
f 51/91/2 57/95/8 56/94/9 50/90/3
f 52/1/1 58/13/7 57/12/8 51/2/2
f 53/5/6 59/14/12 58/13/7 52/1/1
f 54/93/5 60/97/11 59/96/12 53/92/6
f 49/1/4 55/8/10 60/17/11 54/5/5
f 56/9/9 62/19/15 61/18/16 55/8/10
f 57/95/8 63/99/14 62/98/15 56/94/9
f 58/13/7 64/23/13 63/22/14 57/12/8
f 59/14/12 65/24/18 64/23/13 58/13/7
f 60/97/11 66/101/17 65/100/18 59/96/12
f 55/8/10 61/18/16 66/27/17 60/17/11
f 62/103/15 68/109/21 67/108/22 61/102/16
f 63/99/14 69/111/20 68/110/21 62/98/15
f 64/105/13 70/113/19 69/112/20 63/104/14
f 65/106/18 71/114/24 70/113/19 64/105/13
f 66/101/17 72/116/23 71/115/24 65/100/18
f 61/102/16 67/108/22 72/117/23 66/107/17
f 68/109/21 74/48/27 73/49/28 67/108/22
f 69/111/20 75/119/26 74/118/27 68/110/21
f 70/113/19 76/44/25 75/45/26 69/112/20
f 71/114/24 77/53/30 76/44/25 70/113/19
f 72/116/23 78/121/29 77/120/30 71/115/24
f 67/108/22 73/49/28 78/50/29 72/117/23
f 74/48/27 80/123/33 79/122/34 73/49/28
f 75/119/26 81/125/32 80/124/33 74/118/27
f 76/44/25 82/127/31 81/126/32 75/45/26
f 77/53/30 83/128/36 82/127/31 76/44/25
f 78/121/29 84/130/35 83/129/36 77/120/30
f 73/49/28 79/122/34 84/131/35 78/50/29
f 80/123/33 86/133/39 85/132/40 79/122/34
f 81/125/32 87/135/38 86/134/39 80/124/33
f 82/127/31 88/137/37 87/136/38 81/126/32
f 83/128/36 89/138/42 88/137/37 82/127/31
f 84/130/35 90/140/41 89/139/42 83/129/36
f 79/122/34 85/132/40 90/141/41 84/131/35
f 86/75/39 92/81/45 91/80/46 85/74/40
f 87/135/38 93/143/44 92/142/45 86/134/39
f 88/77/37 94/85/43 93/84/44 87/76/38
f 89/78/42 95/86/48 94/85/43 88/77/37
f 90/140/41 96/145/47 95/144/48 89/139/42
f 85/74/40 91/80/46 96/89/47 90/79/41
f 92/81/45 2/2/2 1/1/1 91/80/46
f 93/143/44 3/4/3 2/3/2 92/142/45
f 94/85/43 4/1/4 3/2/3 93/84/44
f 95/86/48 5/5/5 4/1/4 94/85/43
f 96/145/47 6/7/6 5/6/5 95/144/48
f 91/80/46 1/1/1 6/5/6 96/89/47

