# File exported by ZBrush version 2021
# www.zbrush.com
#Vertex Count 180
#Face Count 160
#Auto scale x=1.000000 y=1.000000 z=1.000000
#Auto offset x=-0.000000 y=-0.000000 z=-0.000000
v 0.50053978 -2.93714332 4.62463188
vn -0.536376 0.414364 0.735257
v 0.48484039 -2.91961669 4.60673809
vn -0.535894 0.413743 0.735958
v 0.538908 -2.87394905 4.61337661
vn -0.363682 0.547615 0.753560
v 0.55106163 -2.89447975 4.63084077
vn -0.364044 0.548263 0.752914
v 0.81027793 -3.02610206 4.66797256
vn 0.718393 0.053266 0.693595
v 0.82538414 -3.06788253 4.64810895
vn 0.784080 -0.128530 0.607206
v 0.48088836 -2.96328926 4.61841344
vn -0.708575 0.185217 0.680894
v 0.46379089 -2.94760131 4.60009098
vn -0.707955 0.184642 0.681694
v 0.60352134 -3.22879505 4.63138675
vn -0.176640 -0.827133 0.533526
v 0.56649589 -3.20291805 4.64960146
vn -0.337084 -0.714676 0.612873
v 0.44734954 -3.13918209 4.5273056
vn -0.738761 -0.542533 0.399863
v 0.42729187 -3.13197422 4.4941492
vn -0.859174 -0.483242 0.168218
v 0.4095993 -3.06512832 4.52454757
vn -0.933458 -0.202551 0.296023
v 0.43071746 -3.07639122 4.55586624
vn -0.807156 -0.284038 0.517516
v 0.58231163 -3.24549579 4.59847164
vn -0.380823 -0.915563 0.129297
v 0.56882286 -3.2286024 4.54514646
vn -0.435150 -0.900034 -0.024165
v 0.52283287 -3.19645786 4.56776142
vn -0.673021 -0.733735 0.093139
v 0.53746604 -3.21415805 4.62052917
vn -0.606660 -0.757614 0.240797
v 0.4447937 -2.92803573 4.57161521
vn -0.825115 0.305947 0.474954
v 0.4671936 -2.89824485 4.57869625
vn -0.638192 0.554539 0.534039
v 0.38998413 -3.09066963 4.37643241
vn -0.895492 -0.442083 0.051546
v 0.37127685 -3.02004623 4.40855121
vn -0.970744 -0.157816 0.180968
v 0.78159141 -2.99206543 4.68765592
vn 0.593756 0.201430 0.779025
v 0.79791832 -2.9588356 4.66661262
vn 0.702413 0.530564 0.474465
v 0.83267784 -3.00005531 4.64277553
vn 0.877877 0.322419 0.354089
v 0.67344474 -3.24606037 4.43648243
vn 0.188252 -0.981785 0.025670
v 0.66795921 -3.24573802 4.39746809
vn 0.148184 -0.959777 -0.238472
v 0.59377861 -3.24835109 4.4122715
vn -0.161950 -0.971000 -0.175875
v 0.60375022 -3.24851894 4.45039176
vn -0.097069 -0.991828 0.082797
v 0.53769493 -2.98782539 4.71061849
vn -0.555791 0.439616 0.705574
v 0.52306938 -2.96435356 4.66012811
vn -0.619002 0.526210 0.583044
v 0.5691204 -2.92546653 4.6657772
vn -0.434462 0.670204 0.601722
v 0.58260154 -2.94991111 4.71614217
vn -0.380275 0.576169 0.723478
v 0.52475547 -2.84962463 4.58575964
vn -0.451567 0.700389 0.552760
v 0.85297966 -3.00782012 4.52125072
vn 0.961401 0.048371 0.270867
v 0.86208915 -2.9952507 4.49608039
vn 0.961154 0.047912 0.271822
v 0.86201286 -3.061203 4.46984052
vn 0.960930 -0.223336 0.163509
v 0.85291099 -3.06941795 4.49673986
vn 0.961157 -0.223039 0.162576
v 0.75028801 -2.93123626 4.68777751
vn 0.462274 0.669801 0.581093
v 0.74110221 -2.90629768 4.63670444
vn 0.452522 0.768849 0.451768
v 0.78995323 -2.93460845 4.61499786
vn 0.705361 0.622352 0.339328
v 0.82533836 -3.11310195 4.6301198
vn 0.784054 -0.325178 0.528695
v 0.77461051 -2.80207634 4.38434648
vn 0.522964 0.806344 -0.276258
v 0.76317405 -2.80414581 4.36666584
vn 0.456451 0.800303 -0.388803
v 0.80645561 -2.85550308 4.33697462
vn 0.613431 0.613456 -0.497367
v 0.82011985 -2.85607719 4.35313463
vn 0.692432 0.604888 -0.393254
v 0.8291378 -2.91845512 4.3070259
vn 0.694495 0.383593 -0.608714
v 0.84404563 -2.92232322 4.3216381
vn 0.780542 0.357218 -0.512981
v 0.81931877 -3.06337165 4.27051973
vn 0.680690 -0.165519 -0.713628
v 0.8051815 -3.05223274 4.25845861
vn 0.599880 -0.100215 -0.793789
v 0.76142692 -3.10963058 4.24478864
vn 0.443595 -0.302212 -0.843736
v 0.77342033 -3.12380695 4.25614404
vn 0.511200 -0.384530 -0.768643
v 0.56588554 -3.21362972 4.2899065
vn -0.189270 -0.935844 -0.297275
v 0.49256897 -3.19271946 4.31389236
vn -0.483272 -0.852244 -0.200321
v 0.524374 -3.22855281 4.43496942
vn -0.452210 -0.888268 -0.080538
v 0.83128166 -3.07496452 4.28839874
vn 0.872195 -0.380804 -0.307025
v 0.78394126 -3.13758564 4.27351331
vn 0.682872 -0.630896 -0.368314
v 0.46691131 -3.18838405 4.46323108
vn -0.692947 -0.719976 0.038200
v 0.43184661 -3.15027713 4.34376096
vn -0.727109 -0.681834 -0.080097
v 0.84378624 -2.99388885 4.29312515
vn 0.775902 0.090089 -0.624388
v 0.8286724 -2.98633575 4.27993106
vn 0.688823 0.135900 -0.712078
v 0.85635185 -3.00290489 4.31180477
vn 0.973364 -0.091297 -0.210304
v 0.55074119 -3.22703075 4.49848079
vn -0.364690 -0.915556 0.169584
v 0.50030326 -3.19177722 4.52327632
vn -0.586381 -0.760465 0.279018
v 0.67674827 -3.24211025 4.46558141
vn 0.188093 -0.981844 0.024557
v 0.61163902 -3.2444067 4.47857046
vn -0.097330 -0.991887 0.081775
v 0.78967094 -3.18706417 4.51454067
vn 0.704604 -0.685695 -0.182637
v 0.79301261 -3.18146991 4.46490573
vn 0.697899 -0.715864 0.021819
v 0.73935508 -3.22038364 4.46086597
vn 0.462474 -0.886625 0.003825
v 0.74075889 -3.22254467 4.51085043
vn 0.452056 -0.868859 -0.201814
v 0.37493133 -3.01060104 4.38665103
vn -0.962827 0.029973 -0.268452
v 0.38301086 -3.00248527 4.36885356
vn -0.920855 0.080570 -0.381490
v 0.38887786 -2.93406868 4.39484167
vn -0.899623 0.329379 -0.286685
v 0.38109588 -2.9386692 4.41397714
vn -0.939877 0.298345 -0.166198
v 0.53345298 -3.07816124 4.70633316
vn -0.480470 -0.171741 0.860031
v 0.55225181 -3.03518486 4.71943521
vn -0.426411 -0.028896 0.904068
v 0.56668663 -3.01599884 4.72399711
vn -0.301755 0.137443 0.943426
v 0.79766655 -3.20499515 4.5686407
vn 0.701868 -0.711988 -0.021342
v 0.7499752 -3.23959827 4.56504201
vn 0.461970 -0.886014 -0.039540
v 0.74224662 -2.96927452 4.70512962
vn 0.423081 0.300603 0.854775
v 0.85647392 -2.92876243 4.3413105
vn 0.974135 0.207358 -0.089802
v 0.69431877 -3.25891208 4.56923484
vn 0.182288 -0.983072 -0.018455
v 0.68369102 -3.24234104 4.51513814
vn 0.157723 -0.971013 -0.179605
v 0.62434196 -3.24443721 4.52698183
vn -0.148378 -0.981830 -0.118295
v 0.63644218 -3.26094341 4.58076953
vn -0.108519 -0.993297 0.039819
v 0.83170127 -2.86023712 4.37388324
vn 0.874485 0.483245 0.041842
v 0.41722106 -2.86923599 4.41460895
vn -0.830140 0.508474 -0.228738
v 0.4108963 -2.87049675 4.43475627
vn -0.864688 0.491443 -0.103917
v 0.71101951 -3.16917705 4.25143384
vn 0.285510 -0.551039 -0.784117
v 0.7193737 -3.18448352 4.26864051
vn 0.425643 -0.817983 -0.386952
v 0.43348693 -3.13652706 4.3240199
vn -0.744168 -0.440144 -0.502480
v 0.43871307 -3.12225627 4.30928039
vn -0.718161 -0.355191 -0.598401
v 0.40021514 -3.06744766 4.33932161
vn -0.858138 -0.155736 -0.489229
v 0.39300537 -3.07889366 4.35560512
vn -0.895240 -0.225012 -0.384597
v 0.86868095 -3.04895591 4.43297433
vn 0.986566 -0.136977 -0.089019
v 0.84509086 -3.11726665 4.4108181
vn 0.887269 -0.423335 -0.183145
v 0.6840496 -2.89487838 4.65344095
vn 0.158035 0.827890 0.538166
v 0.67716026 -2.86086463 4.61726999
vn 0.188293 0.695328 0.693588
v 0.73974418 -2.87342453 4.59891367
vn 0.462859 0.640216 0.613095
v 0.52954673 -3.12351894 4.68911695
vn -0.497381 -0.369120 0.785088
v 0.70210075 -3.15280246 4.24030637
vn 0.235794 -0.456056 -0.858146
v 0.64851188 -2.96538353 4.72669553
vn 0.017339 0.317786 0.948004
v 0.69631004 -2.96006393 4.71861076
vn 0.224169 0.340740 0.913041
v 0.80043602 -3.17664051 4.39670562
vn 0.700413 -0.671112 -0.242962
v 0.79333305 -2.90449714 4.57510614
vn 0.698521 0.503562 0.508424
v 0.48457336 -3.19217586 4.49825859
vn -0.585795 -0.760507 0.280133
v 0.46552276 -3.14226627 4.55041885
vn -0.739426 -0.542387 0.398830
v 0.86876487 -2.97875785 4.46091318
vn 0.987013 0.158001 0.028981
v 0.49219512 -3.17755603 4.29513454
vn -0.525305 -0.592939 -0.610310
v 0.49452209 -3.16126728 4.28181266
vn -0.515247 -0.496921 -0.698276
v 0.64417076 -3.21078777 4.27429103
vn 0.124797 -0.923831 -0.361886
v 0.63848686 -3.19477176 4.25688409
vn 0.020113 -0.650202 -0.759495
v 0.56300926 -3.19770145 4.27195644
vn -0.260888 -0.666061 -0.698784
v 0.8398571 -3.12537097 4.44902515
vn 0.869939 -0.487021 0.077570
v 0.8255825 -2.97689628 4.59055709
vn 0.890087 0.403266 0.212419
v 0.4974575 -3.0630989 4.68923568
vn -0.808597 0.005770 0.588335
v 0.52021598 -3.0110588 4.70509576
vn -0.731163 0.206088 0.650330
v 0.63326072 -3.17728519 4.24547433
vn -0.009157 -0.548379 -0.836179
v 0.56170463 -3.18028545 4.25978899
vn -0.269650 -0.564188 -0.780372
v 0.74088096 -2.85141181 4.57921218
vn 0.462898 0.639523 0.613788
v 0.79823875 -2.88467216 4.55373287
vn 0.698417 0.502911 0.509209
v 0.54096031 -3.16657924 4.669528
vn -0.447867 -0.556630 0.699698
v 0.83250999 -3.1586771 4.57964897
vn 0.877306 -0.478700 0.034358
v 0.82539176 -3.13955974 4.52583503
vn 0.889333 -0.440112 -0.124050
v 0.83221244 -3.12936306 4.47729158
vn 0.870111 -0.486860 0.076638
v 0.79790306 -3.18114566 4.4357624
vn 0.697766 -0.715959 0.022910
v 0.83241844 -2.95088386 4.54830408
vn 0.870704 0.299234 0.390298
v 0.84432792 -3.02877807 4.56589698
vn 0.987383 0.134120 0.084184
v 0.74199485 -3.22392368 4.60376644
vn 0.422988 -0.806269 0.413535
v 0.69602775 -3.23986911 4.60723543
vn 0.223948 -0.875344 0.428509
v 0.60376548 -2.98469352 4.7285552
vn -0.176278 0.234016 0.956118
v 0.64823722 -3.24155139 4.6167674
vn 0.016978 -0.882551 0.469910
v 0.73973655 -2.82564735 4.54940128
vn 0.445951 0.800378 0.400654
v 0.72011375 -2.76698398 4.43482351
vn 0.426294 0.857835 0.287041
v 0.78462791 -2.80438804 4.40616798
vn 0.685284 0.707722 0.171802
v 0.8007946 -2.86104965 4.52227211
vn 0.701711 0.652134 0.286918
v 0.85090446 -3.10540771 4.59693145
vn 0.970093 -0.209870 0.121962
v 0.81014823 -3.15709972 4.61583614
vn 0.718242 -0.516409 0.466315
v 0.53855705 -3.22991848 4.47171163
vn -0.364254 -0.915533 0.170641
v 0.84007835 -2.93432235 4.52504301
vn 0.870493 0.298697 0.391180
v 0.73930168 -3.22098064 4.3920989
vn 0.445740 -0.856002 -0.261872
v 0.66843223 -2.81134414 4.57030582
vn 0.147884 0.860129 0.488168
v 0.64477348 -2.75187206 4.45692014
vn 0.124446 0.918327 0.375750
v 0.6367855 -2.92653083 4.71388483
vn -0.108106 0.693709 0.712096
v 0.62468528 -2.90148544 4.66347646
vn -0.147955 0.793840 0.589854
v 0.69466972 -2.920084 4.70409107
vn 0.182568 0.726022 0.662994
v 0.67388725 -2.83797264 4.59885215
vn 0.188412 0.694687 0.694198
v 0.8509655 -3.05064773 4.61872863
vn 0.970331 0.066734 0.232389
v 0.60416984 -2.8457508 4.61065292
vn -0.096808 0.662931 0.742395
v 0.59422874 -2.81962394 4.58286285
vn -0.161787 0.825564 0.540619
v 0.49297332 -2.7922945 4.47323513
vn -0.482647 0.756589 0.441163
v 0.56637382 -2.76061534 4.47018241
vn -0.189166 0.883325 0.428898
v 0.48181152 -3.04155159 4.63820838
vn -0.885686 0.069897 0.458993
v 0.5051403 -2.98818397 4.65446662
vn -0.803758 0.280542 0.524661
v 0.61202049 -2.86813545 4.62829017
vn -0.097005 0.663574 0.741795
v 0.49273681 -3.11801433 4.66838073
vn -0.832449 -0.271776 0.482874
v 0.47697448 -3.09786605 4.61681747
vn -0.910790 -0.222266 0.347935
v 0.74046134 -3.22279644 4.43143653
vn 0.462468 -0.886622 0.005021
v 0.84425926 -3.08492279 4.54356098
vn 0.987063 -0.157108 -0.031981
v 0.71221733 -2.76591014 4.41205978
vn 0.290722 0.941103 -0.172646
v 0.70383262 -2.76974391 4.3930211
vn 0.241230 0.925298 -0.292627
v 0.78138542 -3.19534587 4.60673713
vn 0.593592 -0.682424 0.426550
v 0.44998931 -3.08361244 4.57709789
vn -0.807841 -0.283749 0.516603
v 0.45529174 -3.02182769 4.60056972
vn -0.784470 -0.011451 0.620061
v 0.50655174 -3.17015934 4.64465475
vn -0.762684 -0.535394 0.362858
v 0.49114227 -3.15133571 4.59249639
vn -0.837334 -0.499764 0.221602
v 0.84532737 -2.91389656 4.49173355
vn 0.888560 0.430450 0.158659
v 0.43640136 -3.01026344 4.58099031
vn -0.783794 -0.011934 0.620906
v 0.40847778 -2.87514495 4.45830249
vn -0.860878 0.356947 0.362598
v 0.43214416 -2.84366416 4.46577167
vn -0.671554 0.608688 0.422508
v 0.41563415 -2.99473762 4.55128383
vn -0.908078 0.092927 0.408361
v 0.37766265 -2.94565391 4.43681526
vn -0.945049 0.141415 0.294761
v 0.63937187 -2.75129604 4.43342781
vn 0.019901 0.995481 -0.092857
v 0.63455009 -2.75584697 4.41333389
vn -0.009830 0.975749 -0.218673
v 0.56357383 -2.75974559 4.44623565
vn -0.261601 0.964122 -0.045104
v 0.56244468 -2.76388645 4.42552566
vn -0.270848 0.946694 -0.174390
v 0.43377685 -2.84005546 4.44198894
vn -0.694740 0.717525 -0.049942
v 0.49259948 -2.79038715 4.44919872
vn -0.525029 0.850393 -0.034285
v 0.43898773 -2.84028053 4.42148876
vn -0.672605 0.718124 -0.178609
v 0.49493217 -2.79302501 4.42834568
vn -0.515130 0.841219 -0.164293
g Group63533
f 4//4 3//3 2//2 1//1
f 1//1 2//2 8//8 7//7
f 14//14 13//13 12//12 11//11
f 18//18 17//17 16//16 15//15
f 2//2 20//20 19//19 8//8
f 13//13 22//22 21//21 12//12
f 5//5 25//25 24//24 23//23
f 29//29 28//28 27//27 26//26
f 33//33 32//32 31//31 30//30
f 3//3 34//34 20//20 2//2
f 38//38 37//37 36//36 35//35
f 24//24 41//41 40//40 39//39
f 46//46 45//45 44//44 43//43
f 48//48 47//47 45//45 46//46
f 52//52 51//51 50//50 49//49
f 55//55 54//54 53//53 28//28
f 57//57 52//52 49//49 56//56
f 12//12 21//21 59//59 58//58
f 49//49 50//50 61//61 60//60
f 56//56 49//49 60//60 62//62
f 17//17 64//64 63//63 16//16
f 66//66 29//29 26//26 65//65
f 70//70 69//69 68//68 67//67
f 74//74 73//73 72//72 71//71
f 79//79 70//70 67//67 78//78
f 62//62 60//60 48//48 81//81
f 85//85 84//84 83//83 82//82
f 60//60 61//61 47//47 48//48
f 81//81 48//48 46//46 86//86
f 88//88 87//87 73//73 74//74
f 90//90 89//89 52//52 57//57
f 94//94 93//93 92//92 91//91
f 96//96 56//56 62//62 95//95
f 40//40 99//99 98//98 97//97
f 89//89 101//101 51//51 52//52
f 104//104 57//57 56//56 96//96
f 41//41 105//105 99//99 40//40
f 107//107 11//11 106//106 64//64
f 37//37 95//95 108//108 36//36
f 91//91 92//92 110//110 109//109
f 53//53 113//113 112//112 111//111
f 114//114 96//96 95//95 37//37
f 25//25 115//115 41//41 24//24
f 76//76 117//117 116//116 75//75
f 113//113 119//119 118//118 112//112
f 105//105 121//121 120//120 99//99
f 78//78 67//67 124//124 123//123
f 22//22 71//71 94//94 21//21
f 68//68 126//126 114//114 125//125
f 128//128 35//35 127//127 115//115
f 130//130 82//82 79//79 129//129
f 131//131 33//33 30//30 77//77
f 16//16 63//63 66//66 84//84
f 112//112 118//118 101//101 89//89
f 9//9 15//15 85//85 132//132
f 136//136 135//135 134//134 133//133
f 138//138 123//123 137//137 42//42
f 139//139 55//55 28//28 29//29
f 121//121 136//136 133//133 120//120
f 127//127 140//140 121//121 105//105
f 141//141 90//90 57//57 104//104
f 133//133 134//134 143//143 142//142
g Group32734
f 54//54 109//109 113//113 53//53
g Group63533
f 146//146 97//97 145//145 144//144
f 102//102 144//144 33//33 131//131
f 120//120 133//133 142//142 147//147
f 67//67 68//68 125//125 124//124
f 35//35 36//36 140//140 127//127
f 15//15 16//16 84//84 85//85
f 64//64 106//106 139//139 63//63
f 99//99 120//120 147//147 98//98
f 28//28 53//53 111//111 27//27
f 6//6 148//148 25//25 5//5
f 147//147 142//142 150//150 149//149
f 150//150 152//152 151//151 34//34
f 142//142 143//143 152//152 150//150
f 39//39 40//40 97//97 146//146
f 117//117 154//154 153//153 116//116
f 98//98 147//147 149//149 155//155
f 116//116 153//153 157//157 156//156
f 158//158 141//141 104//104 126//126
f 123//123 124//124 159//159 137//137
f 135//135 43//43 160//160 134//134
f 155//155 149//149 3//3 4//4
f 115//115 127//127 105//105 41//41
f 65//65 26//26 158//158 69//69
f 23//23 24//24 39//39 80//80
f 145//145 155//155 4//4 32//32
f 97//97 98//98 155//155 145//145
f 109//109 110//110 119//119 113//113
f 43//43 44//44 161//161 160//160
f 149//149 150//150 34//34 3//3
f 129//129 79//79 78//78 162//162
f 32//32 4//4 1//1 31//31
f 31//31 1//1 7//7 154//154
f 75//75 116//116 156//156 100//100
f 144//144 145//145 32//32 33//33
f 163//163 14//14 11//11 107//107
f 26//26 27//27 141//141 158//158
f 111//111 112//112 89//89 90//90
f 86//86 46//46 43//43 135//135
f 42//42 137//137 148//148 6//6
f 154//154 7//7 164//164 153//153
f 80//80 39//39 146//146 103//103
f 148//148 128//128 115//115 25//25
f 10//10 18//18 15//15 9//9
f 159//159 38//38 35//35 128//128
f 122//122 165//165 18//18 10//10
f 77//77 30//30 117//117 76//76
f 156//156 157//157 166//166 165//165
f 140//140 167//167 136//136 121//121
f 126//126 104//104 96//96 114//114
f 153//153 164//164 163//163 157//157
f 84//84 66//66 65//65 83//83
f 82//82 83//83 70//70 79//79
f 124//124 125//125 38//38 159//159
f 59//59 91//91 109//109 54//54
f 7//7 8//8 168//168 164//164
f 20//20 170//170 169//169 19//19
f 164//164 168//168 14//14 163//163
f 71//71 72//72 93//93 94//94
f 132//132 85//85 82//82 130//130
f 8//8 19//19 171//171 168//168
f 168//168 171//171 13//13 14//14
f 19//19 169//169 172//172 171//171
f 157//157 163//163 107//107 166//166
f 171//171 172//172 22//22 13//13
f 103//103 146//146 144//144 102//102
f 167//167 86//86 135//135 136//136
f 160//160 161//161 174//174 173//173
f 134//134 160//160 173//173 143//143
f 30//30 31//31 154//154 117//117
f 137//137 159//159 128//128 148//148
f 173//173 174//174 176//176 175//175
f 108//108 81//81 86//86 167//167
f 11//11 12//12 58//58 106//106
f 165//165 166//166 17//17 18//18
f 166//166 107//107 64//64 17//17
f 162//162 78//78 123//123 138//138
f 125//125 114//114 37//37 38//38
f 21//21 94//94 91//91 59//59
f 83//83 65//65 69//69 70//70
f 27//27 111//111 90//90 141//141
f 34//34 151//151 170//170 20//20
f 95//95 62//62 81//81 108//108
f 106//106 58//58 55//55 139//139
f 169//169 88//88 74//74 172//172
f 172//172 74//74 71//71 22//22
f 143//143 173//173 175//175 152//152
f 170//170 177//177 88//88 169//169
f 151//151 178//178 177//177 170//170
f 100//100 156//156 165//165 122//122
f 69//69 158//158 126//126 68//68
f 63//63 139//139 29//29 66//66
f 152//152 175//175 178//178 151//151
f 178//178 180//180 179//179 177//177
f 36//36 108//108 167//167 140//140
f 177//177 179//179 87//87 88//88
f 58//58 59//59 54//54 55//55
f 175//175 176//176 180//180 178//178

 